<svg width="19" height="19" viewBox="0 0 19 19" fill="none" xmlns="http://www.w3.org/2000/svg">
<path d="M6.04545 0H2.59091C1.90365 0 1.24477 0.272968 0.758766 0.758766C0.272968 1.24476 0 1.90365 0 2.59091V6.04545C0 6.73271 0.272968 7.39159 0.758766 7.87759C1.24476 8.36339 1.90365 8.63636 2.59091 8.63636H6.04545C6.73271 8.63636 7.39159 8.36339 7.87759 7.87759C8.36339 7.3916 8.63636 6.73271 8.63636 6.04545V2.59091C8.63636 1.90365 8.36339 1.24477 7.87759 0.758766C7.3916 0.272968 6.73271 0 6.04545 0ZM6.90909 6.04545C6.90909 6.27447 6.8181 6.49424 6.65617 6.65617C6.49424 6.8181 6.27447 6.90909 6.04545 6.90909H2.59091C2.36189 6.90909 2.14212 6.8181 1.98019 6.65617C1.81826 6.49424 1.72727 6.27447 1.72727 6.04545V2.59091C1.72727 2.36189 1.81826 2.14212 1.98019 1.98019C2.14212 1.81826 2.36189 1.72727 2.59091 1.72727H6.04545C6.27447 1.72727 6.49424 1.81826 6.65617 1.98019C6.8181 2.14212 6.90909 2.36189 6.90909 2.59091V6.04545Z" fill="#FF5C72"/>
<path d="M6.04545 10.3636H2.59091C1.90365 10.3636 1.24477 10.6366 0.758766 11.1224C0.272968 11.6084 0 12.2673 0 12.9546V16.4091C0 17.0964 0.272968 17.7552 0.758766 18.2412C1.24476 18.727 1.90365 19 2.59091 19H6.04545C6.73271 19 7.39159 18.727 7.87759 18.2412C8.36339 17.7553 8.63636 17.0964 8.63636 16.4091V12.9546C8.63636 12.2673 8.36339 11.6084 7.87759 11.1224C7.3916 10.6366 6.73271 10.3636 6.04545 10.3636ZM6.90909 16.4091C6.90909 16.6381 6.8181 16.8579 6.65617 17.0198C6.49424 17.1817 6.27447 17.2727 6.04545 17.2727H2.59091C2.36189 17.2727 2.14212 17.1817 1.98019 17.0198C1.81826 16.8579 1.72727 16.6381 1.72727 16.4091V12.9546C1.72727 12.7255 1.81826 12.5058 1.98019 12.3438C2.14212 12.1819 2.36189 12.0909 2.59091 12.0909H6.04545C6.27447 12.0909 6.49424 12.1819 6.65617 12.3438C6.8181 12.5058 6.90909 12.7255 6.90909 12.9546V16.4091Z" fill="#FF5C72"/>
<path d="M16.4087 10.3636H12.9542C12.2669 10.3636 11.6081 10.6366 11.122 11.1224C10.6362 11.6084 10.3633 12.2673 10.3633 12.9546V16.4091C10.3633 17.0964 10.6362 17.7552 11.122 18.2412C11.608 18.727 12.2669 19 12.9542 19H16.4087C17.096 19 17.7549 18.727 18.2409 18.2412C18.7267 17.7553 18.9996 17.0964 18.9996 16.4091V12.9546C18.9996 12.2673 18.7267 11.6084 18.2409 11.1224C17.7549 10.6366 17.096 10.3636 16.4087 10.3636ZM17.2724 16.4091C17.2724 16.6381 17.1814 16.8579 17.0194 17.0198C16.8575 17.1817 16.6378 17.2727 16.4087 17.2727H12.9542C12.7252 17.2727 12.5054 17.1817 12.3435 17.0198C12.1815 16.8579 12.0906 16.6381 12.0906 16.4091V12.9546C12.0906 12.7255 12.1815 12.5058 12.3435 12.3438C12.5054 12.1819 12.7252 12.0909 12.9542 12.0909H16.4087C16.6378 12.0909 16.8575 12.1819 17.0194 12.3438C17.1814 12.5058 17.2724 12.7255 17.2724 12.9546V16.4091Z" fill="#FF5C72"/>
<path d="M16.4087 0H12.9542C12.2669 0 11.6081 0.272968 11.122 0.758766C10.6362 1.24476 10.3633 1.90365 10.3633 2.59091V6.04545C10.3633 6.73271 10.6362 7.39159 11.122 7.87759C11.608 8.36339 12.2669 8.63636 12.9542 8.63636H16.4087C17.096 8.63636 17.7549 8.36339 18.2409 7.87759C18.7267 7.3916 18.9996 6.73271 18.9996 6.04545V2.59091C18.9996 1.90365 18.7267 1.24477 18.2409 0.758766C17.7549 0.272968 17.096 0 16.4087 0ZM17.2724 6.04545C17.2724 6.27447 17.1814 6.49424 17.0194 6.65617C16.8575 6.8181 16.6378 6.90909 16.4087 6.90909H12.9542C12.7252 6.90909 12.5054 6.8181 12.3435 6.65617C12.1815 6.49424 12.0906 6.27447 12.0906 6.04545V2.59091C12.0906 2.36189 12.1815 2.14212 12.3435 1.98019C12.5054 1.81826 12.7252 1.72727 12.9542 1.72727H16.4087C16.6378 1.72727 16.8575 1.81826 17.0194 1.98019C17.1814 2.14212 17.2724 2.36189 17.2724 2.59091V6.04545Z" fill="#FF5C72"/>
</svg>
