<svg width="15" height="23" viewBox="0 0 15 23" fill="none" xmlns="http://www.w3.org/2000/svg">
<path d="M0.688348 22.0282C0.870891 22.0282 1.04606 21.9557 1.17513 21.8266C1.3042 21.6975 1.37673 21.5224 1.37673 21.3398V16.1974C1.37765 15.7359 1.56142 15.2935 1.88778 14.967C2.2143 14.6406 2.65668 14.4568 3.11825 14.4559H4.56385C4.80924 15.4052 5.54064 16.1524 6.48454 16.4178L4.57431 19.5361C4.48304 19.6856 4.45231 19.8641 4.48811 20.0354C4.52391 20.2069 4.62363 20.3581 4.76699 20.4586L6.83213 21.9042C6.94799 21.9857 7.08628 22.0293 7.22793 22.0293C7.36958 22.0293 7.50789 21.9857 7.62373 21.9042L9.68887 20.4586C9.83223 20.3581 9.93195 20.2069 9.96775 20.0354C10.0036 19.8641 9.97282 19.6856 9.88155 19.5361L7.97132 16.4178C8.91522 16.1524 9.64664 15.4052 9.89201 14.4559H11.3376C11.7992 14.4568 12.2416 14.6406 12.5681 14.967C12.8944 15.2935 13.0782 15.7359 13.0791 16.1974V21.3398C13.0791 21.5858 13.2104 21.8131 13.4233 21.936C13.6363 22.0589 13.8987 22.0589 14.1117 21.936C14.3247 21.8131 14.4559 21.5858 14.4559 21.3398V16.1974C14.454 15.3711 14.1249 14.579 13.5405 13.9945C12.9561 13.4101 12.1639 13.081 11.3376 13.0791H3.11832C2.29195 13.081 1.49984 13.4101 0.915348 13.9945C0.331012 14.579 0.00184879 15.3711 0 16.1974V21.3398C0 21.5224 0.0725277 21.6975 0.201597 21.8266C0.330666 21.9557 0.505806 22.0282 0.688348 22.0282ZM7.22795 20.4999L6.08874 19.7014L7.22795 17.8394L8.36716 19.7014L7.22795 20.4999ZM7.22795 15.1443C6.73901 15.1414 6.28834 14.8794 6.04386 14.456H8.41201C8.16754 14.8794 7.7169 15.1414 7.22795 15.1443ZM1.72092 8.26054H2.12364C2.12364 8.28804 2.14776 8.31555 2.15806 8.34659L1.87241 8.62885C1.74303 8.75792 1.67051 8.93309 1.67051 9.11579C1.67051 9.29849 1.74304 9.47381 1.87241 9.60289L3.82045 11.5509C3.94952 11.6803 4.12484 11.7528 4.30754 11.7528C4.49024 11.7528 4.66541 11.6803 4.79448 11.5509L5.07675 11.2653L5.1628 11.2997V11.7024C5.1628 11.885 5.23533 12.0601 5.3644 12.1892C5.49347 12.3183 5.66864 12.3908 5.85118 12.3908H8.6047C8.78724 12.3908 8.96241 12.3183 9.09148 12.1892C9.22055 12.0601 9.29308 11.885 9.29308 11.7024V11.2997L9.37912 11.2653L9.66139 11.5509C9.79046 11.6803 9.96563 11.7528 10.1483 11.7528C10.331 11.7528 10.5064 11.6803 10.6354 11.5509L12.5835 9.60289C12.7128 9.47382 12.7854 9.2985 12.7854 9.11579C12.7854 8.9331 12.7128 8.75793 12.5835 8.62885L12.2978 8.34659C12.2978 8.31555 12.3219 8.28804 12.3322 8.26054H12.735C12.9175 8.26054 13.0927 8.18801 13.2217 8.05894C13.3508 7.92987 13.4233 7.7547 13.4233 7.57216V4.81864C13.4233 4.6361 13.3508 4.46093 13.2217 4.33186C13.0927 4.20279 12.9175 4.13026 12.735 4.13026H12.3322C12.3322 4.10276 12.3081 4.07525 12.2978 4.04421L12.5835 3.76195C12.7128 3.63288 12.7854 3.45771 12.7854 3.27501C12.7854 3.09231 12.7128 2.91699 12.5835 2.78791L10.6354 0.839874C10.5064 0.710494 10.331 0.637971 10.1483 0.637971C9.96564 0.637971 9.79047 0.710498 9.66139 0.839874L9.37912 1.12552L9.29308 1.0911V0.68838C9.29308 0.505837 9.22055 0.330666 9.09148 0.201597C8.96241 0.0725277 8.78724 0 8.6047 0H5.85118C5.66864 0 5.49347 0.0725277 5.3644 0.201597C5.23533 0.330666 5.1628 0.505837 5.1628 0.68838V1.0911L5.07675 1.12552L4.79448 0.839874C4.66542 0.710494 4.49024 0.637971 4.30754 0.637971C4.12485 0.637971 3.94952 0.710498 3.82045 0.839874L1.87241 2.78791C1.74303 2.91698 1.67051 3.0923 1.67051 3.27501C1.67051 3.4577 1.74304 3.63287 1.87241 3.76195L2.15806 4.04421C2.15806 4.07525 2.13393 4.10276 2.12364 4.13026H1.72092C1.53838 4.13026 1.3632 4.20279 1.23413 4.33186C1.10507 4.46093 1.03254 4.6361 1.03254 4.81864V7.57216C1.03254 7.7547 1.10507 7.92987 1.23413 8.05894C1.3632 8.18801 1.53838 8.26054 1.72092 8.26054ZM2.4093 5.50702H2.61243C2.76025 5.50656 2.90407 5.45831 3.02255 5.36965C3.14086 5.28099 3.22768 5.15668 3.26978 5.01486C3.35137 4.7432 3.4597 4.48028 3.59338 4.23015C3.66361 4.1 3.69019 3.95095 3.66914 3.80453C3.64809 3.65825 3.58048 3.52273 3.4763 3.41778L3.33525 3.27319L4.3059 2.30254L4.45049 2.44359C4.55544 2.54777 4.69081 2.61553 4.83709 2.63658C4.98353 2.65763 5.13257 2.63105 5.2627 2.56083C5.51286 2.42715 5.77576 2.31882 6.04742 2.23723C6.18924 2.19512 6.31355 2.10831 6.40221 1.98999C6.49087 1.87152 6.53912 1.7277 6.53958 1.57987V1.37674H7.91634V1.57987C7.9168 1.72769 7.96505 1.87152 8.05371 1.98999C8.14236 2.10831 8.26667 2.19512 8.4085 2.23723C8.68016 2.31882 8.94307 2.42714 9.19321 2.56083C9.32336 2.63105 9.47241 2.65763 9.61883 2.63658C9.76511 2.61553 9.90063 2.54792 10.0056 2.44374L10.1502 2.30269L11.1208 3.27334L10.9798 3.41793C10.8756 3.52288 10.8078 3.65825 10.7868 3.80453C10.7657 3.95097 10.7923 4.10001 10.8625 4.23015C10.9962 4.4803 11.1045 4.74321 11.1861 5.01486C11.2282 5.15669 11.315 5.28099 11.4334 5.36965C11.5518 5.45831 11.6957 5.50656 11.8435 5.50702H12.0466V6.88378H11.8435C11.6957 6.88424 11.5518 6.93249 11.4334 7.02115C11.3151 7.10981 11.2282 7.23412 11.1861 7.37594C11.1045 7.6476 10.9962 7.91052 10.8625 8.16065C10.7923 8.2908 10.7657 8.43985 10.7868 8.58627C10.8078 8.73255 10.8754 8.86808 10.9796 8.97302L11.1207 9.11761L10.15 10.0883L10.0054 9.94721C9.90048 9.84303 9.7651 9.77527 9.61883 9.75422C9.47239 9.73317 9.32334 9.75975 9.19321 9.82997C8.94306 9.96365 8.68015 10.072 8.4085 10.1536C8.26667 10.1957 8.14236 10.2825 8.05371 10.4008C7.96505 10.5193 7.9168 10.6631 7.91634 10.8109V11.0141H6.53958V10.8109C6.53912 10.6631 6.49087 10.5193 6.40221 10.4008C6.31355 10.2825 6.18924 10.1957 6.04742 10.1536C5.77576 10.072 5.51284 9.96366 5.2627 9.82997C5.13256 9.75975 4.98351 9.73317 4.83709 9.75422C4.69081 9.77527 4.55528 9.84288 4.45034 9.94706L4.30575 10.0881L3.33509 9.11746L3.47615 8.97287C3.58032 8.86792 3.64809 8.73255 3.66914 8.58627C3.69019 8.43983 3.66361 8.29079 3.59338 8.16065C3.45971 7.9105 3.35138 7.64759 3.26978 7.37594C3.22768 7.23411 3.14087 7.10981 3.02255 7.02115C2.90408 6.93249 2.76026 6.88424 2.61243 6.88378H2.4093V5.50702ZM7.22795 8.94892C7.95827 8.94892 8.65864 8.65882 9.17493 8.14237C9.69137 7.62609 9.98147 6.92571 9.98147 6.1954C9.98147 5.46509 9.69137 4.76471 9.17493 4.24843C8.65864 3.73198 7.95827 3.44188 7.22795 3.44188C6.49764 3.44188 5.79727 3.73198 5.28098 4.24843C4.76454 4.76471 4.47444 5.46509 4.47444 6.1954C4.47444 6.92571 4.76454 7.62609 5.28098 8.14237C5.79727 8.65882 6.49764 8.94892 7.22795 8.94892ZM7.22795 4.81864C7.59304 4.81864 7.94324 4.96369 8.20152 5.22183C8.45966 5.48013 8.60471 5.83032 8.60471 6.1954C8.60471 6.56048 8.45966 6.91069 8.20152 7.16897C7.94322 7.42711 7.59303 7.57216 7.22795 7.57216C6.86288 7.57216 6.51267 7.42711 6.25439 7.16897C5.99625 6.91067 5.85119 6.56048 5.85119 6.1954C5.85119 5.83032 5.99625 5.48011 6.25439 5.22183C6.51268 4.96369 6.86288 4.81864 7.22795 4.81864Z" fill="#FF5C72"/>
</svg>
