<svg width="15" height="25" viewBox="0 0 15 25" fill="none" xmlns="http://www.w3.org/2000/svg">
<path d="M7.50215 0C4.95004 0 2.86524 2.13801 2.86524 4.75316C2.86524 7.36832 4.95017 9.50454 7.50215 9.50454C10.0541 9.50454 12.1408 7.36814 12.1408 4.75316C12.1408 2.13819 10.0543 0 7.50215 0ZM7.50215 1.56251C9.23022 1.56251 10.6144 2.98257 10.6144 4.75312C10.6144 6.52385 9.23009 7.94216 7.50215 7.94216C5.77408 7.94216 4.38994 6.52371 4.38994 4.75312C4.38994 2.98239 5.77421 1.56251 7.50215 1.56251ZM7.50215 10.48C7.45688 10.48 7.41314 10.4871 7.36805 10.4877C7.18459 10.491 7.003 10.4987 6.82293 10.515C6.72711 10.5239 6.63317 10.5377 6.53855 10.5501C6.41057 10.567 6.28327 10.5862 6.15733 10.6096C6.0513 10.6293 5.94613 10.6509 5.84163 10.6751C5.72812 10.7015 5.61648 10.732 5.505 10.7635C5.40085 10.793 5.29601 10.8197 5.19373 10.8535C5.00159 10.9174 4.81286 10.9883 4.62788 11.0672C4.5387 11.1052 4.4531 11.1495 4.36579 11.1908C4.25653 11.2424 4.14744 11.2942 4.04125 11.3511C3.94679 11.4015 3.85489 11.4553 3.76282 11.5097C3.66207 11.5692 3.56268 11.6304 3.465 11.6944C3.37803 11.7514 3.29192 11.8092 3.20733 11.8699C3.18453 11.8864 3.16002 11.9006 3.13739 11.9171C3.11237 11.936 3.08871 11.9565 3.06608 11.9783C1.21035 13.378 0 15.6258 0 18.1672V24.2217C0.000680746 24.4291 0.081859 24.6274 0.225327 24.7733C0.368966 24.9193 0.563147 25.0007 0.76535 25H14.2391C14.4406 24.9996 14.6336 24.9175 14.7762 24.7717C14.9188 24.6259 14.9993 24.4282 15 24.2217V18.1672C15 15.6299 13.7963 13.3846 11.9474 11.9841C11.9225 11.9601 11.8962 11.9376 11.8684 11.9172C11.8417 11.8976 11.8134 11.88 11.7866 11.8607C11.7071 11.8038 11.6254 11.7511 11.5439 11.6974C11.4433 11.6313 11.341 11.568 11.2372 11.5067C11.149 11.4545 11.0611 11.4025 10.9707 11.3541C10.859 11.2943 10.7445 11.2404 10.6296 11.1863C10.5456 11.1467 10.4637 11.1038 10.3779 11.0672C10.1911 10.9877 10.0003 10.9164 9.8061 10.852C9.71012 10.8203 9.61175 10.7945 9.51423 10.7666C9.39663 10.7329 9.27818 10.7012 9.15837 10.6734C9.05643 10.6499 8.95364 10.6286 8.85016 10.6094C8.72269 10.5855 8.59403 10.5671 8.46452 10.55C8.37075 10.5376 8.27782 10.5236 8.18303 10.5149C8.00247 10.498 7.819 10.4907 7.63504 10.4875C7.59045 10.4868 7.54691 10.48 7.50215 10.48ZM7.50215 12.0441C7.7365 12.0441 7.96793 12.0585 8.19466 12.0852C8.23534 12.0899 8.27499 12.098 8.31532 12.1035C8.50423 12.1299 8.68973 12.1633 8.87216 12.2073C8.9062 12.2153 8.93972 12.2247 8.97342 12.2333C9.17186 12.2849 9.3674 12.3435 9.55714 12.4148C9.56803 12.4186 9.5791 12.4228 9.58999 12.4268C9.79932 12.5071 10.003 12.5986 10.2005 12.7015L7.50214 15.4664L4.80538 12.7015C5.18915 12.5017 5.59709 12.3475 6.02358 12.2361C6.06153 12.2263 6.09863 12.2144 6.13675 12.2055C6.31885 12.1619 6.50537 12.1295 6.69377 12.1033C6.73274 12.0978 6.77069 12.0894 6.81 12.085C7.03703 12.0582 7.2671 12.0441 7.50215 12.0441ZM3.51875 13.5928L6.96317 17.1236C7.1063 17.2701 7.29997 17.3524 7.50216 17.3524C7.70434 17.3524 7.89818 17.2703 8.04113 17.1238L11.4869 13.593C12.7104 14.711 13.4793 16.3382 13.4793 18.1675V23.4381H1.52601V18.1675C1.52601 16.3381 2.29511 14.7108 3.51875 13.5928Z" fill="#FF5C72"/>
</svg>
