<svg width="21" height="21" viewBox="0 0 21 21" fill="none" xmlns="http://www.w3.org/2000/svg">
<path d="M15.7648 20.0069H3.55979C2.61605 20.0058 1.71108 19.6305 1.04388 18.9631C0.376437 18.2959 0.00116238 17.3909 0 16.4472V4.24216C0.00113512 3.29842 0.376414 2.39345 1.04388 1.72625C1.71108 1.05881 2.61605 0.683532 3.55979 0.68237H10.6794C10.9602 0.68237 11.1879 0.91008 11.1879 1.19091C11.1879 1.47174 10.9602 1.69945 10.6794 1.69945H3.55979C2.88573 1.70036 2.23938 1.96848 1.76263 2.445C1.2861 2.92176 1.01801 3.5681 1.01708 4.24216V16.4472C1.01799 17.1212 1.28611 17.7676 1.76263 18.2443C2.23939 18.7208 2.88573 18.9889 3.55979 18.9899H15.7648C16.4388 18.989 17.0852 18.7208 17.5619 18.2443C18.0385 17.7676 18.3066 17.1212 18.3075 16.4472V9.29212C18.3075 9.01129 18.5352 8.78358 18.816 8.78358C19.0969 8.78358 19.3246 9.01129 19.3246 9.29212V16.4472C19.3234 17.3909 18.9482 18.2959 18.2807 18.9631C17.6135 19.6305 16.7085 20.0058 15.7648 20.0069ZM11.998 3.94866L5.65603 10.3011C5.28211 10.6754 5.01219 11.1408 4.87235 11.6512L4.03032 14.7283C3.96698 14.9601 3.98764 15.2066 4.08889 15.4246C4.18992 15.6423 4.36473 15.8175 4.58268 15.9188C4.8004 16.02 5.04695 16.0409 5.27877 15.9778L8.37227 15.1342C8.88467 14.9945 9.35169 14.7235 9.72697 14.348L16.0631 8.01185C16.2615 7.81342 16.2615 7.4915 16.0631 7.29286L12.7178 3.94758C12.6223 3.85223 12.4928 3.79865 12.358 3.79865C12.2229 3.79888 12.0935 3.85269 11.9982 3.94826L11.998 3.94866ZM19.4122 1.78692L18.2217 0.596412V0.596185C17.8403 0.214552 17.3227 0 16.7828 0C16.2432 0 15.7256 0.21454 15.3439 0.596185L13.4353 2.50778L13.4355 2.508C13.2368 2.70643 13.2368 3.02835 13.4355 3.227L16.7821 6.5743C16.9807 6.77273 17.3027 6.77273 17.5011 6.5743L19.4122 4.66317C19.7936 4.28154 20.0079 3.76436 20.0079 3.22496C20.0079 2.68556 19.7936 2.16836 19.4122 1.78675L19.4122 1.78692Z" fill="#FF5C72"/>
</svg>
