<svg width="475" height="499" viewBox="0 0 475 499" fill="none" xmlns="http://www.w3.org/2000/svg">
<path d="M450.56 0H284.56C278.272 0 272.237 2.49854 267.791 6.9449C263.344 11.3913 260.846 17.4258 260.846 23.7143V260.857C260.846 267.146 263.344 273.18 267.791 277.627C272.237 282.073 278.272 284.571 284.56 284.571H450.56C456.848 284.571 462.883 282.073 467.329 277.627C471.776 273.18 474.274 267.146 474.274 260.857V23.7143C474.274 17.4258 471.776 11.3913 467.329 6.9449C462.883 2.49854 456.848 0 450.56 0ZM426.846 237.143H308.274V47.4286H426.846V237.143Z" fill="#234C87"/>
<path d="M189.714 213.429H23.7143C17.4258 213.429 11.3913 215.928 6.9449 220.374C2.49854 224.821 0 230.855 0 237.144V474.286C0 480.575 2.49854 486.609 6.9449 491.056C11.3913 495.502 17.4258 498.001 23.7143 498.001H189.714C196.003 498.001 202.037 495.502 206.484 491.056C210.93 486.609 213.429 480.575 213.429 474.286V237.144C213.429 230.855 210.93 224.821 206.484 220.374C202.037 215.928 196.003 213.429 189.714 213.429ZM166 450.572H47.4286V260.858H166V450.572Z" fill="#234C87"/>
<path d="M189.714 0H23.7143C17.4258 0 11.3913 2.49854 6.9449 6.9449C2.49854 11.3913 0 17.4258 0 23.7143V166C0 172.289 2.49854 178.323 6.9449 182.769C11.3913 187.216 17.4258 189.714 23.7143 189.714H189.714C196.003 189.714 202.037 187.216 206.484 182.769C210.93 178.323 213.429 172.289 213.429 166V23.7143C213.429 17.4258 210.93 11.3913 206.484 6.9449C202.037 2.49854 196.003 0 189.714 0ZM166 142.286H47.4286V47.4286H166V142.286Z" fill="#234C87"/>
<path d="M450.56 308.287H284.56C278.272 308.287 272.237 310.786 267.791 315.232C263.344 319.678 260.846 325.713 260.846 332.001V474.287C260.846 480.576 263.344 486.61 267.791 491.057C272.237 495.503 278.272 498.001 284.56 498.001H450.56C456.848 498.001 462.883 495.503 467.329 491.057C471.776 486.61 474.274 480.576 474.274 474.287V332.001C474.274 325.713 471.776 319.678 467.329 315.232C462.883 310.786 456.848 308.287 450.56 308.287ZM426.846 450.573H308.274V355.716H426.846V450.573Z" fill="#234C87"/>
</svg>
