<svg width="99" height="106" viewBox="0 0 99 106" fill="none" xmlns="http://www.w3.org/2000/svg">
<path fill-rule="evenodd" clip-rule="evenodd" d="M15.0337 18.5073H83.7276C86.0844 18.5073 87.9951 20.4179 87.9951 22.7764V87.0476C87.9951 95.557 83.3982 102.52 75.0573 104.793C71.9859 105.631 25.6292 105.58 23.2805 104.674C14.9851 102.236 10.9235 95.4422 10.7793 87.0476L10.7653 22.7764C10.7653 20.4181 12.6759 18.5074 15.0329 18.5074L15.0337 18.5073ZM31.5958 0H67.1651C67.479 0 67.7348 0.254367 67.7348 0.568262V6.27515H94.5473C100.162 6.27515 100.162 14.8116 94.5473 14.8116H4.21072C-1.40357 14.8116 -1.40357 6.27515 4.21072 6.27515H31.0232V0.568262C31.0232 0.254349 31.279 0 31.5929 0L31.5958 0ZM27.798 35.5749C27.798 29.9606 36.3337 29.9606 36.3337 35.5749V83.0006C36.3337 88.6149 27.798 88.6149 27.798 83.0006V35.5749ZM62.4263 35.5749C62.4263 29.9606 70.9627 29.9606 70.9627 35.5749V83.0006C70.9627 88.6149 62.4263 88.6149 62.4263 83.0006V35.5749ZM45.1114 35.5749C45.1114 29.9606 53.6478 29.9606 53.6478 35.5749V83.0006C53.6478 88.6149 45.1114 88.6149 45.1114 83.0006V35.5749Z" fill="black"/>
</svg>
