<svg width="23" height="17" viewBox="0 0 23 17" fill="none" xmlns="http://www.w3.org/2000/svg">
<path d="M19.0329 17H3.64176C1.63356 17 0 15.3664 0 13.3582V3.64176C0 1.63382 1.63382 0 3.64176 0H19.0329C21.0408 0 22.6744 1.63382 22.6744 3.64176V13.3582C22.6744 15.3664 21.0408 17 19.0329 17ZM3.64176 1.06494C2.22083 1.06494 1.06494 2.22083 1.06494 3.64176V13.3582C1.06494 14.7792 2.22083 15.9353 3.64176 15.9353H19.0329C20.4538 15.9353 21.6097 14.7792 21.6097 13.3582V3.64176C21.6097 2.22083 20.4538 1.06494 19.0329 1.06494H3.64176Z" fill="#959595"/>
<path d="M2.78255 3.69245C5.50448 6.34485 8.22642 8.997 10.9484 11.6494C11.4558 12.1437 12.2345 11.3667 11.7263 10.8714C9.0044 8.21927 6.28247 5.56687 3.56053 2.91472C3.05313 2.42017 2.27439 3.19739 2.78255 3.69245Z" fill="#959595"/>
<path d="M11.7265 11.6494C14.4484 8.99722 17.1703 6.34482 19.8923 3.69267C20.4002 3.19761 19.6219 2.42013 19.1143 2.91469C16.3924 5.56684 13.6704 8.21924 10.9485 10.8714C10.4406 11.3664 11.2188 12.1439 11.7265 11.6494Z" fill="#959595"/>
<path d="M19.8612 13.5268C18.05 11.809 16.2385 10.0916 14.4274 8.37387C13.9137 7.88688 13.1344 8.66335 13.6494 9.15186C15.4606 10.8696 17.272 12.587 19.0832 14.3047C19.5969 14.7917 20.3761 14.015 19.8612 13.5268Z" fill="#959595"/>
<path d="M3.64018 14.3046C5.45136 12.5869 7.2628 10.8694 9.07398 9.15168C9.58869 8.66343 8.80995 7.88645 8.29599 8.3737C6.48481 10.0914 4.67338 11.8089 2.8622 13.5266C2.34749 14.0148 3.12623 14.7921 3.64018 14.3046Z" fill="#959595"/>
</svg>
