<svg width="80" height="28" viewBox="0 0 80 28" fill="none" xmlns="http://www.w3.org/2000/svg">
<path d="M0.46967 21.4697C0.176777 21.7626 0.176777 22.2374 0.46967 22.5303L5.24264 27.3033C5.53553 27.5962 6.01041 27.5962 6.3033 27.3033C6.59619 27.0104 6.59619 26.5355 6.3033 26.2426L2.06066 22L6.3033 17.7574C6.59619 17.4645 6.59619 16.9896 6.3033 16.6967C6.01041 16.4038 5.53553 16.4038 5.24264 16.6967L0.46967 21.4697ZM79 22.75C79.4142 22.75 79.75 22.4142 79.75 22C79.75 21.5858 79.4142 21.25 79 21.25V22.75ZM1 22.75H79V21.25H1V22.75Z" fill="#234C87"/>
<path d="M27.5324 13.656V15H20.8604V3.912H22.4124V13.656H27.5324ZM36.2178 10.84C36.2178 11.5013 36.1218 12.0987 35.9298 12.632C35.7378 13.1653 35.4658 13.624 35.1138 14.008C34.7724 14.392 34.3618 14.6907 33.8818 14.904C33.4018 15.1067 32.8791 15.208 32.3138 15.208C31.7484 15.208 31.2258 15.1067 30.7458 14.904C30.2658 14.6907 29.8498 14.392 29.4978 14.008C29.1564 13.624 28.8898 13.1653 28.6978 12.632C28.5058 12.0987 28.4098 11.5013 28.4098 10.84C28.4098 10.1893 28.5058 9.59733 28.6978 9.064C28.8898 8.52 29.1564 8.056 29.4978 7.672C29.8498 7.288 30.2658 6.99467 30.7458 6.792C31.2258 6.57867 31.7484 6.472 32.3138 6.472C32.8791 6.472 33.4018 6.57867 33.8818 6.792C34.3618 6.99467 34.7724 7.288 35.1138 7.672C35.4658 8.056 35.7378 8.52 35.9298 9.064C36.1218 9.59733 36.2178 10.1893 36.2178 10.84ZM34.6658 10.84C34.6658 9.90133 34.4524 9.16 34.0258 8.616C33.6098 8.06133 33.0391 7.784 32.3138 7.784C31.5884 7.784 31.0124 8.06133 30.5858 8.616C30.1698 9.16 29.9618 9.90133 29.9618 10.84C29.9618 11.7787 30.1698 12.5253 30.5858 13.08C31.0124 13.624 31.5884 13.896 32.3138 13.896C33.0391 13.896 33.6098 13.624 34.0258 13.08C34.4524 12.5253 34.6658 11.7787 34.6658 10.84ZM43.5273 14.168C43.3993 14.2533 43.1486 14.3653 42.7753 14.504C42.4126 14.632 41.9859 14.696 41.4953 14.696C40.9939 14.696 40.5193 14.616 40.0713 14.456C39.6339 14.296 39.2499 14.0507 38.9193 13.72C38.5886 13.3787 38.3273 12.9573 38.1353 12.456C37.9433 11.9547 37.8473 11.3573 37.8473 10.664C37.8473 10.056 37.9379 9.50133 38.1193 9C38.3006 8.488 38.5619 8.05067 38.9033 7.688C39.2553 7.31467 39.6819 7.02667 40.1833 6.824C40.6846 6.61067 41.2499 6.504 41.8793 6.504C42.5726 6.504 43.1753 6.55733 43.6873 6.664C44.2099 6.76 44.6473 6.85067 44.9993 6.936V14.36C44.9993 15.64 44.6686 16.568 44.0073 17.144C43.3459 17.72 42.3433 18.008 40.9993 18.008C40.4766 18.008 39.9806 17.9653 39.5113 17.88C39.0526 17.7947 38.6526 17.6933 38.3113 17.576L38.5833 16.28C38.8819 16.3973 39.2446 16.4987 39.6713 16.584C40.1086 16.68 40.5619 16.728 41.0312 16.728C41.9166 16.728 42.5513 16.552 42.9353 16.2C43.3299 15.848 43.5273 15.288 43.5273 14.52V14.168ZM43.5113 7.992C43.3619 7.94933 43.1593 7.912 42.9033 7.88C42.6579 7.83733 42.3219 7.816 41.8953 7.816C41.0953 7.816 40.4766 8.07733 40.0393 8.6C39.6126 9.12267 39.3993 9.816 39.3993 10.68C39.3993 11.16 39.4579 11.5707 39.5753 11.912C39.7033 12.2533 39.8686 12.536 40.0713 12.76C40.2846 12.984 40.5246 13.1493 40.7913 13.256C41.0686 13.3627 41.3513 13.416 41.6393 13.416C42.0339 13.416 42.3966 13.3627 42.7273 13.256C43.0579 13.1387 43.3193 13.0053 43.5113 12.856V7.992ZM49.0493 15H47.5613V6.68H49.0493V15ZM48.2973 5.176C48.0306 5.176 47.8013 5.09067 47.6093 4.92C47.4279 4.73867 47.3372 4.49867 47.3372 4.2C47.3372 3.90133 47.4279 3.66667 47.6093 3.496C47.8013 3.31467 48.0306 3.224 48.2973 3.224C48.5639 3.224 48.7879 3.31467 48.9693 3.496C49.1613 3.66667 49.2573 3.90133 49.2573 4.2C49.2573 4.49867 49.1613 4.73867 48.9693 4.92C48.7879 5.09067 48.5639 5.176 48.2973 5.176ZM51.6081 6.92C51.9495 6.83467 52.4028 6.744 52.9681 6.648C53.5335 6.552 54.1841 6.504 54.9201 6.504C55.5815 6.504 56.1308 6.6 56.5681 6.792C57.0055 6.97333 57.3521 7.23467 57.6081 7.576C57.8748 7.90667 58.0615 8.30667 58.1681 8.776C58.2748 9.24533 58.3281 9.76267 58.3281 10.328V15H56.8401V10.648C56.8401 10.136 56.8028 9.69867 56.7281 9.336C56.6641 8.97333 56.5521 8.68 56.3921 8.456C56.2321 8.232 56.0188 8.072 55.7521 7.976C55.4855 7.86933 55.1548 7.816 54.7601 7.816C54.6001 7.816 54.4348 7.82133 54.2641 7.832C54.0935 7.84267 53.9281 7.85867 53.7681 7.88C53.6188 7.89067 53.4801 7.90667 53.3521 7.928C53.2348 7.94933 53.1495 7.96533 53.0961 7.976V15H51.6081V6.92Z" fill="#234C87"/>
</svg>
