<svg width="504" height="505" viewBox="0 0 504 505" fill="none" xmlns="http://www.w3.org/2000/svg">
<path d="M420.398 170.36L449.382 141.376C452.198 138.56 456.015 136.978 459.995 136.978C463.975 136.978 467.792 138.56 470.604 141.376L499.588 170.36H499.592C502.404 173.176 503.986 176.993 503.986 180.973C503.986 184.954 502.404 188.77 499.592 191.582L470.608 220.566L420.398 170.36ZM25.8479 505H356.848C363.703 505 370.282 502.277 375.129 497.426C379.977 492.578 382.703 486.004 382.703 479.145V348.075L354.703 376.075L354.699 476.995H27.9992V88.6948H74.4642V60.6948H25.8552C18.9958 60.6948 12.4212 63.4175 7.5742 68.2651C2.7226 73.1128 0 79.6911 0 86.5501V479.14C0 486 2.7227 492.574 7.5742 497.421C12.4219 502.273 18.9962 504.995 25.8552 504.995L25.8479 505ZM382.698 168.46V86.546C382.698 79.6866 379.971 73.108 375.124 68.261C370.276 63.4133 363.698 60.6907 356.843 60.6907H308.234V88.6907H354.699L354.695 196.461L382.698 168.46ZM258.268 128.128C264.092 128.128 269.678 125.816 273.795 121.698C277.912 117.581 280.225 111.995 280.225 106.171V64.3513C280.225 58.5271 277.912 52.9453 273.795 48.8283C269.678 44.7111 264.092 42.3947 258.268 42.3947H237.092C235.561 27.1327 226.526 13.6367 212.99 6.41471C199.459 -0.807994 183.217 -0.807994 169.685 6.41471C156.154 13.6374 147.115 27.1337 145.587 42.3947H124.407C118.583 42.3947 112.997 44.7111 108.88 48.8283C104.763 52.9455 102.45 58.5275 102.45 64.3513V106.171C102.45 111.996 104.763 117.581 108.88 121.698C112.997 125.816 118.583 128.128 124.407 128.128H258.268ZM74.4479 198.292V218.397C74.4479 220.577 76.2174 222.342 78.3971 222.342H304.277C306.457 222.342 308.226 220.577 308.226 218.397V198.292C308.226 196.112 306.457 194.343 304.277 194.343H78.3971C77.3502 194.343 76.3463 194.761 75.6041 195.499C74.8658 196.241 74.4479 197.245 74.4479 198.292V198.292ZM204.898 382.782L78.3979 382.778C76.2182 382.778 74.4487 384.548 74.4487 386.727V406.832C74.4487 409.012 76.2182 410.778 78.3979 410.778H199.628C198.616 404.543 199.233 398.153 201.417 392.227L204.898 382.782ZM239.035 413.251L300.531 390.638L307.937 383.232L257.722 333.025L250.316 340.431C250.32 340.431 236.3 378.525 227.668 401.966C226.492 405.197 227.301 408.821 229.742 411.243C232.184 413.669 235.809 414.45 239.035 413.251L239.035 413.251ZM262.59 288.561H78.3999C76.2202 288.561 74.4507 290.327 74.4507 292.51V312.615V312.611C74.4507 314.791 76.2202 316.56 78.3999 316.56H234.59L262.59 288.561ZM454.77 236.405L404.559 186.194L273.569 317.184L323.78 367.395L454.77 236.405Z" fill="#234C87"/>
</svg>
