<svg width="14" height="17" viewBox="0 0 14 17" fill="none" xmlns="http://www.w3.org/2000/svg">
<path fill-rule="evenodd" clip-rule="evenodd" d="M0.394461 7.64316H1.61644V7.49653V5.06266C1.61644 3.67072 2.18617 2.40509 3.1029 1.48809V1.48687C4.02004 0.569731 5.28594 0 6.67883 0C8.07062 0 9.33625 0.569731 10.2534 1.48687L10.2548 1.48809C11.1715 2.40509 11.7412 3.67072 11.7412 5.06266V7.49653V7.64316H12.7145C12.9314 7.64316 13.109 7.82074 13.109 8.03748V16.3662C13.109 16.5829 12.9314 16.7605 12.7145 16.7605H0.394461C0.177589 16.7605 0 16.5829 0 16.3662V8.03748C0 7.82074 0.177589 7.64316 0.394461 7.64316ZM3.58329 7.64316H9.77395V7.49653V5.03456C9.77395 4.18344 9.42559 3.40911 8.86527 2.84811L8.86459 2.84866C8.30386 2.28752 7.52967 1.93902 6.67883 1.93902C5.82757 1.93902 5.05338 2.28738 4.49197 2.84811C3.93151 3.40911 3.58329 4.18344 3.58329 5.03456V7.49666V7.64316ZM6.70379 12.2005L7.32862 15.0838L5.61588 15.091L6.11851 12.169C5.65053 12.0189 5.31131 11.5804 5.31131 11.0626C5.31131 10.4214 5.83098 9.90176 6.47246 9.90176C7.11325 9.90176 7.63333 10.4214 7.63333 11.0626C7.63333 11.6246 7.23396 12.0934 6.70379 12.2005Z" fill="#959595"/>
</svg>
