<svg width="80" height="28" viewBox="0 0 80 28" fill="none" xmlns="http://www.w3.org/2000/svg">
<path d="M1 21.25C0.585786 21.25 0.25 21.5858 0.25 22C0.25 22.4142 0.585786 22.75 1 22.75V21.25ZM79.5303 22.5303C79.8232 22.2374 79.8232 21.7626 79.5303 21.4697L74.7574 16.6967C74.4645 16.4038 73.9896 16.4038 73.6967 16.6967C73.4038 16.9896 73.4038 17.4645 73.6967 17.7574L77.9393 22L73.6967 26.2426C73.4038 26.5355 73.4038 27.0104 73.6967 27.3033C73.9896 27.5962 74.4645 27.5962 74.7574 27.3033L79.5303 22.5303ZM1 22.75H79V21.25H1V22.75Z" fill="#234C87"/>
<path d="M15.8859 10.36C16.0566 10.5733 16.2699 10.856 16.5259 11.208C16.7926 11.5493 17.0646 11.9333 17.3419 12.36C17.6193 12.776 17.8913 13.2133 18.1579 13.672C18.4353 14.1307 18.6699 14.5733 18.8619 15H17.1659C16.9526 14.5947 16.7179 14.184 16.4619 13.768C16.2166 13.352 15.9659 12.9573 15.7099 12.584C15.4539 12.2 15.1979 11.8427 14.9419 11.512C14.6966 11.1813 14.4726 10.8933 14.2699 10.648C14.1313 10.6587 13.9873 10.664 13.8379 10.664C13.6993 10.664 13.5553 10.664 13.4059 10.664H12.0139V15H10.4619V4.072C10.8993 3.96533 11.3846 3.896 11.9179 3.864C12.4619 3.82133 12.9579 3.8 13.4059 3.8C14.9633 3.8 16.1473 4.09333 16.9579 4.68C17.7793 5.26667 18.1899 6.14133 18.1899 7.304C18.1899 8.04 17.9926 8.66933 17.5979 9.192C17.2139 9.71467 16.6433 10.104 15.8859 10.36ZM13.5339 5.16C12.8726 5.16 12.3659 5.176 12.0139 5.208V9.384H13.1179C13.6513 9.384 14.1313 9.35733 14.5579 9.304C14.9846 9.25067 15.3419 9.14933 15.6299 9C15.9286 8.85067 16.1579 8.64267 16.3179 8.376C16.4779 8.09867 16.5579 7.736 16.5579 7.288C16.5579 6.872 16.4779 6.52533 16.3179 6.248C16.1579 5.97067 15.9393 5.752 15.6619 5.592C15.3953 5.432 15.0753 5.32 14.7019 5.256C14.3393 5.192 13.9499 5.16 13.5339 5.16ZM19.9644 10.856C19.9644 10.12 20.0711 9.48 20.2844 8.936C20.4978 8.38133 20.7804 7.92267 21.1324 7.56C21.4844 7.19733 21.8898 6.92533 22.3484 6.744C22.8071 6.56267 23.2764 6.472 23.7564 6.472C24.8764 6.472 25.7351 6.824 26.3324 7.528C26.9298 8.22133 27.2284 9.28267 27.2284 10.712C27.2284 10.776 27.2284 10.8613 27.2284 10.968C27.2284 11.064 27.2231 11.1547 27.2124 11.24H21.5164C21.5804 12.104 21.8311 12.76 22.2684 13.208C22.7058 13.656 23.3884 13.88 24.3164 13.88C24.8391 13.88 25.2764 13.8373 25.6284 13.752C25.9911 13.656 26.2631 13.5653 26.4444 13.48L26.6524 14.728C26.4711 14.824 26.1511 14.9253 25.6924 15.032C25.2444 15.1387 24.7324 15.192 24.1564 15.192C23.4311 15.192 22.8018 15.0853 22.2684 14.872C21.7458 14.648 21.3138 14.344 20.9724 13.96C20.6311 13.576 20.3751 13.1227 20.2044 12.6C20.0444 12.0667 19.9644 11.4853 19.9644 10.856ZM25.6764 10.04C25.6871 9.368 25.5164 8.81867 25.1644 8.392C24.8231 7.95467 24.3484 7.736 23.7404 7.736C23.3991 7.736 23.0951 7.80533 22.8284 7.944C22.5724 8.072 22.3538 8.24267 22.1724 8.456C21.9911 8.66933 21.8471 8.91467 21.7404 9.192C21.6444 9.46933 21.5804 9.752 21.5484 10.04H25.6764ZM34.5819 14.168C34.4539 14.2533 34.2033 14.3653 33.8299 14.504C33.4673 14.632 33.0406 14.696 32.5499 14.696C32.0486 14.696 31.5739 14.616 31.1259 14.456C30.6886 14.296 30.3046 14.0507 29.9739 13.72C29.6433 13.3787 29.3819 12.9573 29.1899 12.456C28.9979 11.9547 28.9019 11.3573 28.9019 10.664C28.9019 10.056 28.9926 9.50133 29.1739 9C29.3553 8.488 29.6166 8.05067 29.9579 7.688C30.3099 7.31467 30.7366 7.02667 31.2379 6.824C31.7393 6.61067 32.3046 6.504 32.9339 6.504C33.6273 6.504 34.2299 6.55733 34.7419 6.664C35.2646 6.76 35.7019 6.85067 36.0539 6.936V14.36C36.0539 15.64 35.7233 16.568 35.0619 17.144C34.4006 17.72 33.3979 18.008 32.0539 18.008C31.5313 18.008 31.0353 17.9653 30.5659 17.88C30.1073 17.7947 29.7073 17.6933 29.3659 17.576L29.6379 16.28C29.9366 16.3973 30.2993 16.4987 30.7259 16.584C31.1633 16.68 31.6166 16.728 32.0859 16.728C32.9713 16.728 33.6059 16.552 33.9899 16.2C34.3846 15.848 34.5819 15.288 34.5819 14.52V14.168ZM34.5659 7.992C34.4166 7.94933 34.2139 7.912 33.9579 7.88C33.7126 7.83733 33.3766 7.816 32.9499 7.816C32.1499 7.816 31.5313 8.07733 31.0939 8.6C30.6673 9.12267 30.4539 9.816 30.4539 10.68C30.4539 11.16 30.5126 11.5707 30.6299 11.912C30.7579 12.2533 30.9233 12.536 31.1259 12.76C31.3393 12.984 31.5793 13.1493 31.8459 13.256C32.1233 13.3627 32.4059 13.416 32.6939 13.416C33.0886 13.416 33.4513 13.3627 33.7819 13.256C34.1126 13.1387 34.3739 13.0053 34.5659 12.856V7.992ZM40.1039 15H38.6159V6.68H40.1039V15ZM39.3519 5.176C39.0853 5.176 38.8559 5.09067 38.6639 4.92C38.4826 4.73867 38.3919 4.49867 38.3919 4.2C38.3919 3.90133 38.4826 3.66667 38.6639 3.496C38.8559 3.31467 39.0853 3.224 39.3519 3.224C39.6186 3.224 39.8426 3.31467 40.0239 3.496C40.2159 3.66667 40.3119 3.90133 40.3119 4.2C40.3119 4.49867 40.2159 4.73867 40.0239 4.92C39.8426 5.09067 39.6186 5.176 39.3519 5.176ZM44.5988 13.928C45.2068 13.928 45.6548 13.848 45.9428 13.688C46.2415 13.528 46.3908 13.272 46.3908 12.92C46.3908 12.5573 46.2468 12.2693 45.9588 12.056C45.6708 11.8427 45.1961 11.6027 44.5348 11.336C44.2148 11.208 43.9055 11.08 43.6068 10.952C43.3188 10.8133 43.0681 10.6533 42.8548 10.472C42.6415 10.2907 42.4708 10.072 42.3428 9.816C42.2148 9.56 42.1508 9.24533 42.1508 8.872C42.1508 8.136 42.4228 7.55467 42.9668 7.128C43.5108 6.69067 44.2521 6.472 45.1908 6.472C45.4255 6.472 45.6601 6.488 45.8948 6.52C46.1295 6.54133 46.3481 6.57333 46.5508 6.616C46.7535 6.648 46.9295 6.68533 47.0788 6.728C47.2388 6.77067 47.3615 6.808 47.4468 6.84L47.1748 8.12C47.0148 8.03467 46.7641 7.94933 46.4228 7.864C46.0815 7.768 45.6708 7.72 45.1908 7.72C44.7748 7.72 44.4121 7.80533 44.1028 7.976C43.7935 8.136 43.6388 8.392 43.6388 8.744C43.6388 8.92533 43.6708 9.08533 43.7348 9.224C43.8095 9.36267 43.9161 9.49067 44.0548 9.608C44.2041 9.71467 44.3855 9.816 44.5988 9.912C44.8121 10.008 45.0681 10.1093 45.3668 10.216C45.7615 10.3653 46.1135 10.5147 46.4228 10.664C46.7321 10.8027 46.9935 10.968 47.2068 11.16C47.4308 11.352 47.6015 11.5867 47.7188 11.864C47.8361 12.1307 47.8948 12.4613 47.8948 12.856C47.8948 13.624 47.6068 14.2053 47.0308 14.6C46.4655 14.9947 45.6548 15.192 44.5988 15.192C43.8628 15.192 43.2868 15.128 42.8708 15C42.4548 14.8827 42.1721 14.792 42.0228 14.728L42.2948 13.448C42.4655 13.512 42.7375 13.608 43.1108 13.736C43.4841 13.864 43.9801 13.928 44.5988 13.928ZM51.1954 6.68H54.3474V7.928H51.1954V11.768C51.1954 12.184 51.2274 12.5307 51.2914 12.808C51.3554 13.0747 51.4514 13.288 51.5794 13.448C51.7074 13.5973 51.8674 13.704 52.0594 13.768C52.2514 13.832 52.4754 13.864 52.7314 13.864C53.1794 13.864 53.5368 13.816 53.8034 13.72C54.0808 13.6133 54.2728 13.5387 54.3794 13.496L54.6674 14.728C54.5181 14.8027 54.2568 14.8933 53.8834 15C53.5101 15.1173 53.0834 15.176 52.6034 15.176C52.0381 15.176 51.5688 15.1067 51.1954 14.968C50.8328 14.8187 50.5394 14.6 50.3154 14.312C50.0914 14.024 49.9314 13.672 49.8354 13.256C49.7501 12.8293 49.7074 12.3387 49.7074 11.784V4.36L51.1954 4.104V6.68ZM55.6207 10.856C55.6207 10.12 55.7274 9.48 55.9407 8.936C56.154 8.38133 56.4367 7.92267 56.7887 7.56C57.1407 7.19733 57.546 6.92533 58.0047 6.744C58.4634 6.56267 58.9327 6.472 59.4127 6.472C60.5327 6.472 61.3914 6.824 61.9887 7.528C62.586 8.22133 62.8847 9.28267 62.8847 10.712C62.8847 10.776 62.8847 10.8613 62.8847 10.968C62.8847 11.064 62.8794 11.1547 62.8687 11.24H57.1727C57.2367 12.104 57.4874 12.76 57.9247 13.208C58.362 13.656 59.0447 13.88 59.9727 13.88C60.4954 13.88 60.9327 13.8373 61.2847 13.752C61.6474 13.656 61.9194 13.5653 62.1007 13.48L62.3087 14.728C62.1274 14.824 61.8074 14.9253 61.3487 15.032C60.9007 15.1387 60.3887 15.192 59.8127 15.192C59.0874 15.192 58.458 15.0853 57.9247 14.872C57.402 14.648 56.97 14.344 56.6287 13.96C56.2874 13.576 56.0314 13.1227 55.8607 12.6C55.7007 12.0667 55.6207 11.4853 55.6207 10.856ZM61.3327 10.04C61.3434 9.368 61.1727 8.81867 60.8207 8.392C60.4794 7.95467 60.0047 7.736 59.3967 7.736C59.0554 7.736 58.7514 7.80533 58.4847 7.944C58.2287 8.072 58.01 8.24267 57.8287 8.456C57.6474 8.66933 57.5034 8.91467 57.3967 9.192C57.3007 9.46933 57.2367 9.752 57.2047 10.04H61.3327ZM68.0942 6.504C68.2222 6.504 68.3662 6.51467 68.5262 6.536C68.6969 6.54667 68.8622 6.568 69.0222 6.6C69.1822 6.62133 69.3262 6.648 69.4542 6.68C69.5929 6.70133 69.6942 6.72267 69.7582 6.744L69.5022 8.04C69.3849 7.99733 69.1875 7.94933 68.9102 7.896C68.6435 7.832 68.2969 7.8 67.8702 7.8C67.5929 7.8 67.3155 7.832 67.0382 7.896C66.7715 7.94933 66.5955 7.98667 66.5102 8.008V15H65.0222V7.032C65.3742 6.904 65.8115 6.78667 66.3342 6.68C66.8569 6.56267 67.4435 6.504 68.0942 6.504Z" fill="#234C87"/>
</svg>
