<svg width="410" height="518" viewBox="0 0 410 518" fill="none" xmlns="http://www.w3.org/2000/svg">
<path d="M127.459 165.31H180.229V101.771L155.459 130.849L127.459 165.31Z" fill="#234C87"/>
<path d="M175.919 70.5389H350.379V47.9219H127.459L95.1502 83.4609L59.6152 126.539V468.999H95.1502V165.309L137.15 115.77L175.919 70.5389Z" fill="#234C87"/>
<path d="M115.62 24.2299H290.08V0.53894H67.1499L35.9199 36.0779L0.380859 79.1519V421.612H35.9199V118.992L76.8459 68.3749L115.62 24.2299Z" fill="#234C87"/>
<path d="M203.92 94.23V187.921H118.842L118.846 517.461H409.616V94.231L203.92 94.23ZM384.85 447.46H145.77V423.769H384.85V447.46ZM384.85 388.23H145.77V364.539H384.85V388.23ZM384.85 329H145.77V305.309H384.85V329ZM384.85 270.848H144.69V247.157H385.92V270.848H384.85ZM384.85 223.461H227.62V199.77H384.85V223.461ZM384.85 165.309H227.62V141.618H384.85V165.309Z" fill="#234C87"/>
</svg>
