<svg width="478" height="478" viewBox="0 0 478 478" fill="none" xmlns="http://www.w3.org/2000/svg">
<path d="M463.97 188.59L404.532 185.574C401.653 176.68 398.071 168.039 393.802 159.742L433.732 115.547C438.732 110.016 438.513 101.531 433.232 96.2623L381.712 44.7853C376.442 39.5158 367.97 39.3048 362.439 44.297L318.248 84.195C309.978 79.9372 301.353 76.3512 292.455 73.465L289.42 14.027C289.041 6.57783 282.888 0.738037 275.436 0.738037H202.581C195.128 0.738037 188.979 6.57394 188.597 14.015L185.538 73.464C176.655 76.3546 168.038 79.9367 159.757 84.198L115.546 44.292C110.019 39.2959 101.546 39.499 96.273 44.7842L44.785 96.2612C39.5155 101.527 39.2967 109.999 44.285 115.531L84.18 159.777C79.9027 168.121 76.3245 176.738 73.469 185.543L14.031 188.59C6.5896 188.969 0.75 195.121 0.75 202.574V275.429C0.75 282.882 6.5898 289.031 14.031 289.413L73.457 292.452C76.3125 301.296 79.8984 309.925 84.176 318.257L44.285 362.456C39.2889 367.987 39.5077 376.46 44.785 381.729L96.273 433.221C101.539 438.491 110.011 438.698 115.546 433.721L159.765 393.83C168.113 398.119 176.738 401.697 185.546 404.549L188.585 463.971C188.964 471.413 195.116 477.252 202.569 477.252H275.424C282.877 477.252 289.026 471.412 289.408 463.963L292.439 404.553C301.264 401.702 309.888 398.124 318.232 393.842L362.427 433.721C367.951 438.698 376.423 438.499 381.7 433.229L433.22 381.737C438.49 376.468 438.709 367.991 433.713 362.456L393.821 318.261C398.118 309.913 401.7 301.277 404.544 292.445L463.955 289.41C471.396 289.031 477.236 282.879 477.236 275.426V202.571C477.259 195.118 471.411 188.966 463.969 188.591L463.97 188.59ZM449.259 262.129L393.165 264.996C387.04 265.316 381.829 269.578 380.313 275.523C376.985 288.578 371.739 301.226 364.711 313.117C361.586 318.387 362.258 325.078 366.367 329.621L404.027 371.34L371.324 404.031L329.605 366.375C325.062 362.281 318.382 361.609 313.113 364.711C301.23 371.727 288.574 376.977 275.504 380.324C269.563 381.844 265.305 387.051 264.992 393.176L262.129 449.262H215.879L213.011 393.172C212.691 387.051 208.441 381.856 202.507 380.324C189.472 376.98 176.817 371.726 164.895 364.707C159.613 361.594 152.957 362.277 148.415 366.375L106.673 404.023L73.9925 371.343L111.648 329.616C115.742 325.069 116.418 318.393 113.313 313.124C106.317 301.269 101.059 288.608 97.6876 275.491C96.1681 269.553 90.961 265.311 84.8476 264.991L28.7426 262.128V215.87L84.8366 213.003C90.946 212.682 96.1486 208.444 97.6766 202.515C101.044 189.48 106.302 176.824 113.314 164.89C116.411 159.624 115.732 152.956 111.638 148.425L73.9778 106.659L106.658 73.9865L148.404 111.671C152.958 115.788 159.642 116.46 164.931 113.315C176.634 106.37 189.286 101.096 202.529 97.647C208.443 96.1118 212.67 90.9204 212.986 84.823L215.876 28.729H262.126L264.99 84.815C265.302 90.9205 269.537 96.116 275.451 97.655C288.74 101.112 301.396 106.382 313.06 113.311C318.341 116.463 325.037 115.78 329.595 111.67L371.325 73.9864L404.016 106.65L366.328 148.369C362.222 152.924 361.547 159.615 364.672 164.885C371.621 176.627 376.891 189.299 380.328 202.561C381.863 208.487 387.058 212.721 393.167 213.034L449.258 215.878L449.261 262.128L449.259 262.129ZM238.999 137.619C183.101 137.619 137.619 183.096 137.619 238.999C137.619 294.902 183.103 340.379 238.999 340.379C294.895 340.379 340.379 294.895 340.379 238.999C340.379 183.103 294.895 137.619 238.999 137.619ZM238.999 312.389C198.534 312.389 165.616 279.471 165.616 239.006C165.616 198.541 198.534 165.623 238.999 165.623C279.464 165.623 312.382 198.541 312.382 239.006C312.382 279.471 279.464 312.389 238.999 312.389Z" fill="#234C87"/>
</svg>
