<svg width="26" height="25" viewBox="0 0 26 25" fill="none" xmlns="http://www.w3.org/2000/svg">
<path d="M21.661 3.34343C21.661 2.60148 21.0595 2 20.3176 2H5.64852C4.90656 2 4.30508 2.60148 4.30508 3.34343H12.2288H13H21.661Z" fill="#234C87"/>
<path d="M13 3.34343V16.7778C13.26 16.7778 13.5142 16.77 13.7627 16.7547V4.10615C13.7627 3.68491 13.4212 3.34343 13 3.34343Z" fill="#234C87"/>
<path d="M13 16.7778V3.34343H12.2288V16.7542C12.4801 16.7698 12.7371 16.7778 13 16.7778Z" fill="#234C87"/>
<path d="M13 23V16.7778C12.7371 16.7778 12.4801 16.7698 12.2288 16.7542V23H13Z" fill="#234C87"/>
<path d="M13 23C13.4212 23 13.7627 22.6585 13.7627 22.2373V16.7547C13.5142 16.77 13.26 16.7778 13 16.7778V23Z" fill="#234C87"/>
<path d="M8.66102 23H12.2288M17.2881 23H13M13 3.34343V16.7778M13 3.34343H21.661M13 3.34343H12.2288M13 3.34343V3.34343C13.4212 3.34343 13.7627 3.68491 13.7627 4.10615V16.7547M13 23V16.7778M13 23H12.2288M13 23V23C13.4212 23 13.7627 22.6585 13.7627 22.2373V16.7547M13 16.7778C12.7371 16.7778 12.4801 16.7698 12.2288 16.7542M13 16.7778C13.26 16.7778 13.5142 16.77 13.7627 16.7547M4.30508 3.34343V3.34343C3.03202 3.34343 1.99168 4.37978 2.16684 5.64073C2.79529 10.1649 5.34474 16.3259 12.2288 16.7542M4.30508 3.34343V3.34343C4.30508 2.60148 4.90656 2 5.64852 2H20.3176C21.0595 2 21.661 2.60148 21.661 3.34343V3.34343M4.30508 3.34343H12.2288M21.661 3.34343V3.34343C22.9528 3.34343 24.0086 4.39471 23.8285 5.67389C23.192 10.1968 20.6364 16.332 13.7627 16.7547M12.2288 3.34343V16.7542M12.2288 23V16.7542" stroke="#234C87" stroke-width="3" stroke-linecap="round"/>
</svg>
