<svg width="23" height="23" viewBox="0 0 23 23" fill="none" xmlns="http://www.w3.org/2000/svg">
<path d="M22.4388 0H0.00657579C0.00294408 0 0 0.00294408 0 0.00657579V22.4388C0 22.4424 0.00294408 22.4453 0.00657579 22.4453H22.4388C22.4424 22.4453 22.4453 22.4424 22.4453 22.4388V0.00657579C22.4453 0.00294408 22.4424 0 22.4388 0Z" fill="#0079BF"/>
<path d="M17.2296 4.16455H13.4595C12.9026 4.16455 12.4512 4.61598 12.4512 5.17284V11.3979C12.4512 11.9548 12.9026 12.4062 13.4595 12.4062H17.2296C17.7864 12.4062 18.2379 11.9548 18.2379 11.3979V5.17284C18.2379 4.61598 17.7864 4.16455 17.2296 4.16455Z" fill="white"/>
<path d="M9.03036 4.16455H5.26024C4.70338 4.16455 4.25195 4.61598 4.25195 5.17284V16.1325C4.25195 16.6893 4.70338 17.1408 5.26024 17.1408H9.03036C9.58722 17.1408 10.0386 16.6893 10.0386 16.1325V5.17284C10.0386 4.61598 9.58722 4.16455 9.03036 4.16455Z" fill="white"/>
</svg>
