<svg width="24" height="17" viewBox="0 0 24 17" fill="none" xmlns="http://www.w3.org/2000/svg">
<path d="M22.473 1.9584H15.2003V0.36396C15.2003 0.163058 15.0376 0.000284565 14.8367 0.000284565L9.16387 0C8.96297 0 8.80019 0.162773 8.80019 0.363675V1.95811L1.52727 1.9584C0.685214 1.9584 0 2.64363 0 3.48567V15.0963C0 15.9384 0.685229 16.6236 1.52727 16.6236H22.4727C23.3148 16.6236 24 15.9383 24 15.0963V3.48567C24 2.6434 23.3148 1.9584 22.4727 1.9584H22.473ZM9.52703 0.727402H14.4725V3.06366H9.52703V0.727402ZM23.2729 15.0968C23.2729 15.5379 22.914 15.8967 22.473 15.8967H1.52752C1.08644 15.8967 0.727641 15.5378 0.727641 15.0968V3.48618C0.727641 3.0451 1.08648 2.6863 1.52752 2.6863H8.80015V3.42819C8.80015 3.6291 8.96292 3.79187 9.16383 3.79187H14.8366C15.0375 3.79187 15.2003 3.6291 15.2003 3.42819V2.6863H22.4729C22.914 2.6863 23.2728 3.04514 23.2728 3.48618L23.2729 15.0968ZM7.13031 9.79991C8.67463 9.79991 9.93127 8.54327 9.93127 6.99895C9.93127 5.45463 8.67463 4.19799 7.13031 4.19799C5.58599 4.19799 4.32935 5.45463 4.32935 6.99895C4.32964 8.54327 5.58599 9.79991 7.13031 9.79991ZM7.13031 4.92531C8.27367 4.92531 9.20395 5.85559 9.20395 6.99895C9.20395 8.14231 8.27367 9.07258 7.13031 9.07258C5.98695 9.07258 5.05667 8.14231 5.05667 6.99895C5.05667 5.85559 5.98695 4.92531 7.13031 4.92531ZM8.13628 10.1237H6.12471C4.19109 10.1237 2.61799 11.4407 2.61799 13.0596C2.61799 13.5012 3.01524 13.8467 3.79865 14.0863C4.42754 14.2787 5.25366 14.3846 6.125 14.3846H8.13657C9.00762 14.3846 9.83402 14.2787 10.4629 14.0863C11.2463 13.8467 11.6436 13.5013 11.6436 13.0596C11.6433 11.4407 10.0699 10.1237 8.13628 10.1237ZM10.1226 13.4276C9.57649 13.5758 8.87103 13.6575 8.13628 13.6575H6.12471C5.38996 13.6575 4.68449 13.5758 4.13813 13.4276C3.57525 13.2747 3.37722 13.1037 3.34502 13.0468C3.34901 12.4782 3.6293 11.9381 4.13499 11.5244C4.66571 11.0902 5.37225 10.8511 6.12464 10.8511H8.13621C8.88859 10.8511 9.59515 11.0902 10.1258 11.5244C10.6315 11.9382 10.9118 12.4786 10.9158 13.0468C10.8834 13.1037 10.6856 13.2747 10.1224 13.4276H10.1226ZM21.2844 6.78441C21.2844 6.98531 21.1217 7.14808 20.9208 7.14808H14.009C13.8081 7.14808 13.6453 6.98531 13.6453 6.78441C13.6453 6.5835 13.8081 6.42073 14.009 6.42073H20.9208C21.1217 6.42073 21.2844 6.5835 21.2844 6.78441ZM20.6211 9.22797C20.6211 9.42887 20.4583 9.59165 20.2574 9.59165L14.6723 9.59136C14.4714 9.59136 14.3086 9.42859 14.3086 9.22768C14.3086 9.02678 14.4714 8.86401 14.6723 8.86401H20.2574C20.4583 8.8643 20.6211 9.02707 20.6211 9.22797ZM20.6211 11.7984C20.6211 11.9993 20.4583 12.1621 20.2574 12.1621L14.6723 12.1618C14.4714 12.1618 14.3086 11.9991 14.3086 11.7982C14.3086 11.5972 14.4714 11.4345 14.6723 11.4345H20.2574C20.4583 11.4348 20.6211 11.5975 20.6211 11.7984Z" fill="#959595"/>
</svg>
